# xmcd
#
# Track frame offsets:
#	150
#	13175
#	26447
#	39685
#	52355
#	65110
#	76837
#	88702
#	99245
#	117940
#	131600
#	143265
#	167577
#	187157
#	203857
#	225045
#	246297
#	260782
#	279052
#	301310
#
# Disc length: 4261 seconds
#
# Revision: 2
# Processed by: cddbd v1.5.2PL0 Copyright (c) Steve Scherf et al.
# Submitted via: audiograbber 1.83.01
#
DISCID=0f10a314
DTITLE=Various Artist - Indigo Blues Collection 4
DYEAR=1999
DGENRE=Blues
TTITLE0=Mississipi John Hurt - Got The Blues Can't Be Satisfied
TTITLE1=John Oscar - Whoopee Mama Blues
TTITLE2=Walter Brown - Confessin' The Blues
TTITLE3=Louis Jordan - Let The Good Times Roll
TTITLE4=The Ravens - Send For Me If You Need Me
TTITLE5=Gene Phillips - Rock Bottom
TTITLE6=Albinia Jones - Hey Little Boy
TTITLE7=Snooky Pryor and Moody Jones - Boogie
TTITLE8=Duster Bennett - Love Me Like You Can
TTITLE9=Zoot Money's Big Roll Band - Smack Dab In The Middle
TTITLE10=Stan Webb's Chicken Shack - Unlucky Boy
TTITLE11=John Mayall - You Must Be Crazy
TTITLE12=Fred James - Everybody's Gettin' Them Some
TTITLE13=The Downliners Sect - Break Up
TTITLE14=Paul Lamb and The King Snakes - Someday's
TTITLE15=Paul Lamb and The King Snakes - If The Tables Were Turned
TTITLE16=Johnny Whitehill - Since You've Been Gone
TTITLE17=Richie Milton and The Lowdown - Messed Up In Your Love
TTITLE18=Ruby Turner - My Intuition Tells Me
TTITLE19=Richie Milton and The Lowdown - Its Getting Harder
EXTD=
EXTT0=
EXTT1=
EXTT2=
EXTT3=
EXTT4=
EXTT5=
EXTT6=
EXTT7=
EXTT8=
EXTT9=
EXTT10=
EXTT11=
EXTT12=
EXTT13=
EXTT14=
EXTT15=
EXTT16=
EXTT17=
EXTT18=
EXTT19=
PLAYORDER=
